<svg width="48" height="48" viewBox="0 0 48 48" fill="none" xmlns="http://www.w3.org/2000/svg">
<path d="M0 8C0 3.58172 3.58172 0 8 0H40C44.4183 0 48 3.58172 48 8V40C48 44.4183 44.4183 48 40 48H8C3.58172 48 0 44.4183 0 40V8Z" fill="white"/>
<path d="M36.4375 17.5969L25.3542 12.6094C24.493 12.2218 23.507 12.2218 22.6458 12.6094L11.5625 17.5969C10.6977 17.986 10.6977 19.214 11.5625 19.6031L22.6458 24.5906C23.507 24.9782 24.493 24.9782 25.3542 24.5906L36.4375 19.6031C37.3023 19.214 37.3023 17.986 36.4375 17.5969Z" stroke="#007CA4" stroke-width="1.1"/>
<path d="M24.2837 18.4712C24.544 18.3145 24.6279 17.9765 24.4712 17.7163C24.3145 17.456 23.9765 17.3721 23.7163 17.5288L24.2837 18.4712ZM18.6589 21.2165L18.3752 20.7453L18.6589 21.2165ZM18.1265 22.1474L17.5765 22.1417L18.1265 22.1474ZM23.7163 17.5288L18.3752 20.7453L18.9427 21.6877L24.2837 18.4712L23.7163 17.5288ZM17.5765 22.1417L17.45 34.3563L18.55 34.3677L18.6764 22.1531L17.5765 22.1417ZM18.3752 20.7453C17.8847 21.0407 17.5824 21.5692 17.5765 22.1417L18.6764 22.1531C18.6784 21.9623 18.7792 21.7861 18.9427 21.6877L18.3752 20.7453Z" fill="#007CA4"/>
<circle cx="18" cy="35.6953" r="1.5" stroke="#007CA4"/>
<path d="M15.2005 20.7994V27.841C15.2005 28.0276 15.2465 28.2118 15.3447 28.3705C15.8927 29.2561 17.1084 30.7897 18.5851 31.3816C20.6159 32.1956 24.6774 33.0096 27.3851 32.1956C27.6385 32.1194 27.8918 32.0361 28.1429 31.9464M32.8005 20.7994C32.8005 22.6988 32.8005 25.0595 32.8005 26.3619C32.8005 26.5137 32.8005 25.816 32.8005 26.7007" stroke="#007CA4" stroke-width="1.1"/>
<path d="M27.0329 26.4108C25.7428 28.3316 28.2758 31.2867 28.2758 31.2867L28.657 31.78C28.657 31.78 29.0197 32.2258 29.3313 32.6023C29.7125 33.0628 29.812 33.2024 30.1523 33.589C30.7893 34.3126 31.1557 34.9871 32.1054 35.0281C33.0551 35.0691 34.6677 32.7573 35.2248 32.0761C35.7819 31.3948 38.4254 28.2378 36.826 26.4437C35.1547 24.569 33.073 27.4304 32.1054 27.4304C31.1378 27.4304 28.4255 24.3372 27.0329 26.4108Z" stroke="#007CA4" stroke-width="1.0625"/>
</svg>
