<svg width="48" height="48" viewBox="0 0 48 48" fill="none" xmlns="http://www.w3.org/2000/svg">
<path d="M0 8C0 3.58172 3.58172 0 8 0H40C44.4183 0 48 3.58172 48 8V40C48 44.4183 44.4183 48 40 48H8C3.58172 48 0 44.4183 0 40V8Z" fill="white"/>
<path d="M33.1841 14.2826C32.7544 14.1619 31.8092 13.993 31.4655 14.2826C31.0358 14.6446 30.9284 15.0067 31.4655 15.4894C31.8951 15.8756 32.7902 16.0526 33.1841 16.0928" stroke="#C35200" stroke-width="0.7" stroke-linecap="round"/>
<path d="M30.0689 35.6444H27.9206C28.2428 33.5928 27.9421 30.262 27.5983 29.007C27.2546 27.7519 27.0482 27.0454 26.5111 26.08" stroke="#C35200" stroke-width="0.7" stroke-linecap="round"/>
<path d="M34.5104 20.0234C33.8784 20.7335 32.6255 23.7936 32.5396 24.6625C32.4321 25.7486 31.2506 26.7141 30.6061 27.0761C29.8542 27.4985 29.8352 29.8018 29.9616 30.9379C30.0691 31.9033 30.2839 33.4721 31.4654 35.6444H29.9616C29.6394 34.6789 29.1023 32.7481 29.1023 30.0931C29.1024 27.383 29.711 25.5877 29.9616 25.0245" stroke="#C35200" stroke-width="0.7" stroke-linecap="round"/>
<path d="M26.8465 27.0752C26.3094 27.2833 26.2715 27.1959 25.0899 27.0752M14.5837 29.0749C13.617 30.7644 13.742 31.9024 14.2791 35.4021H12.3457" stroke="#C35200" stroke-width="0.7" stroke-linecap="round"/>
<path d="M12.3457 35.4022H10.1894M31.2505 14.4039V14.5246C31.1789 14.605 30.8424 14.7176 30.069 14.5246C29.1023 14.2832 22.7649 15.49 20.5092 15.852C18.2535 16.2141 13.5273 14.7659 12.668 14.7659C11.8087 14.7659 11.4864 15.2486 10.7345 17.5416C10.3309 18.7724 10.5114 20.9193 10.8171 23.0859" stroke="#C35200" stroke-width="0.7" stroke-linecap="round"/>
<path d="M11.7013 15.2494C11.0568 15.2494 9.25224 16.1424 9.33817 19.7145C9.44559 24.1797 9.4456 25.8692 9.23077 26.3519" stroke="#C35200" stroke-width="0.7" stroke-linecap="round"/>
<path d="M32.9692 14.2836C32.8618 13.4388 33.6352 13.0526 34.1507 12.9561C34.6663 12.8595 35.5113 12.9963 35.8694 13.0767C36.299 13.5997 37.1583 14.7663 37.1583 15.249C37.1583 15.8524 36.7287 18.5074 36.8361 18.9901C36.9435 19.4728 37.1583 20.4382 36.8361 20.5589C36.5138 20.6796 35.3576 20.7081 35.1175 20.4382C34.9026 20.1969 34.5104 19.9529 34.5104 20.0233" stroke="#C35200" stroke-width="0.7" stroke-linecap="round"/>
<path d="M36.621 14.0421C37.3729 13.9214 38.7692 14.5489 38.7692 14.6455C38.7692 14.7662 38.3396 15.6109 38.0173 15.7316C37.7595 15.8282 37.2654 15.6511 37.158 15.6109" stroke="#C35200" stroke-width="0.7" stroke-linecap="round"/>
<path d="M13.9706 24.8111C14.2538 25.4252 14.6503 26.9257 13.9706 28.015C13.9198 28.0965 13.8677 28.1765 13.8148 28.2553M28.0739 21.2067V22.7285L28.2438 22.9688M28.2438 22.9688L28.9234 23.8499L29.1783 21.8474L29.0662 22.7285C29.3353 22.862 30.2658 23.1771 30.5377 23.3693C30.8775 23.6096 31.5572 23.6897 31.982 23.6096C32.4068 23.5295 32.4917 22.8887 32.4917 22.7285C32.4917 22.5683 31.1324 21.1266 30.9625 21.0465C30.7925 20.9664 30.9307 20.1094 30.3677 19.6848C29.943 19.3644 29.6031 19.2042 29.3482 19.2042C28.2438 19.2042 27.4791 20.4057 26.2047 21.5271C24.9304 22.6484 23.8259 22.328 22.2966 22.328C20.7674 22.328 16.2645 21.6072 15.4149 21.5271C14.5653 21.447 12.9511 21.6873 11.4218 22.8086C9.89258 23.93 9.89259 25.1315 9.89259 25.6121C9.89259 26.0926 10.9121 26.9737 11.082 27.6145C11.2519 28.2553 10.5723 29.1364 10.4873 29.5369C10.4023 29.9374 10.6572 30.4179 10.7422 31.1388C10.8101 31.7155 10.4873 33.9957 10.3174 35.0636H11.9316C11.8183 34.5563 11.6258 33.2214 11.7617 31.9398C11.9214 30.4337 12.9824 29.494 13.8148 28.2553M28.2438 22.9688L27.9039 23.6096C27.3942 24.3305 26.2897 25.8524 25.9499 26.1727C25.5251 26.5732 24.6755 27.3742 24.4206 27.7747C24.1657 28.1752 23.7409 29.3767 23.9109 30.498C24.0808 31.6194 24.0808 32.9811 24.2507 33.4617C24.3866 33.8461 24.3073 34.7432 24.4206 35.0636H22.8913C22.948 33.9957 22.9763 31.6194 22.6365 30.6582C22.2966 29.6971 22.2683 28.9228 22.2966 28.6558M22.2966 28.6558C22.4099 28.4689 22.6195 27.9349 22.5515 27.2941M22.2966 28.6558C22.0984 28.816 21.566 29.1364 21.0222 29.1364C20.3426 29.1364 17.6239 29.2966 16.2645 28.9762C15.177 28.7199 14.1782 28.3888 13.8148 28.2553M22.5515 27.2941C22.4835 26.6533 22.24 26.1727 22.1267 26.0125L22.5515 27.2941Z" stroke="#C35200" stroke-width="0.7" stroke-linecap="round"/>
<path d="M28.5167 17.2691C28.776 17.462 30.1936 18.7461 30.4585 19.4052C30.7234 20.0644 30.5031 19.8176 30.3598 19.6118C30.034 19.3285 29.2091 18.738 28.5167 18.6428C27.8243 18.5475 27.2074 18.6251 26.9855 18.6758" stroke="#C35200" stroke-width="0.7" stroke-linecap="round"/>
<circle cx="35" cy="13" r="4" fill="#CB2C2C"/>
<circle cx="35" cy="13" r="4" fill="#CB2C2C"/>
<circle cx="35" cy="13" r="4" fill="#CB2C2C"/>
</svg>
