<svg width="48" height="48" viewBox="0 0 48 48" fill="none" xmlns="http://www.w3.org/2000/svg">
<path d="M0 8C0 3.58172 3.58172 0 8 0H40C44.4183 0 48 3.58172 48 8V40C48 44.4183 44.4183 48 40 48H8C3.58172 48 0 44.4183 0 40V8Z" fill="white"/>
<path d="M28.9297 28.9629V29.6666" stroke="#CB2C2C" stroke-width="1.1" stroke-linecap="round"/>
<path d="M16.2324 22.9814V33.1852H31.7514V22.9814C31.7514 20.7531 30.1995 16.2963 23.9919 16.2963C17.7843 16.2963 16.2324 20.7531 16.2324 22.9814Z" stroke="#CB2C2C" stroke-width="1.1" stroke-linecap="round"/>
<path d="M35.1568 33.1852H13.2405C12.827 33.1852 12 33.1852 12 34.5926C12 36 12.7054 36 13.2405 36H35.1568C35.9838 36 35.9838 35.2963 35.9838 34.3111C35.9838 33.1852 35.2784 33.1852 35.1568 33.1852Z" stroke="#CB2C2C" stroke-width="1.1" stroke-linecap="round"/>
<path d="M24.1297 10.6666V13.4814" stroke="#CB2C2C" stroke-width="1.1" stroke-linecap="round"/>
<path d="M36.2786 17.7036L33.8676 19.111" stroke="#CB2C2C" stroke-width="1.1" stroke-linecap="round"/>
<path d="M12 16.2963L14.4111 17.7037" stroke="#CB2C2C" stroke-width="1.1" stroke-linecap="round"/>
<path d="M24.5733 18.6658C25.2612 18.5405 26.8028 18.5532 27.4661 19.6061" stroke="#CB2C2C" stroke-width="1.1" stroke-linecap="round"/>
<path d="M19.7772 22.6503C18.813 23.6162 18.813 25.1822 19.7772 26.1481L23.9919 30.3703L28.2066 26.1481C29.1708 25.1822 29.1708 23.6162 28.2066 22.6503C27.2424 21.6844 25.6792 21.6844 24.715 22.6503L23.9919 23.3748L23.2688 22.6503C22.3046 21.6844 20.7414 21.6844 19.7772 22.6503Z" stroke="#CB2C2C" stroke-width="1.1" stroke-linecap="round" stroke-linejoin="round"/>
</svg>
