<svg width="17" height="22" viewBox="0 0 17 22" fill="none" xmlns="http://www.w3.org/2000/svg">
<path d="M12.25 14.75V17M4.75 10.25H4.7575V10.2575H4.75V10.25ZM4.75 12.5H4.7575V12.5075H4.75V12.5ZM4.75 14.75H4.7575V14.7575H4.75V14.75ZM4.75 17H4.7575V17.0075H4.75V17ZM7.24756 10.25H7.25506V10.2575H7.24756V10.25ZM7.24756 12.5H7.25506V12.5075H7.24756V12.5ZM7.24756 14.75H7.25506V14.7575H7.24756V14.75ZM7.24756 17H7.25506V17.0075H7.24756V17ZM9.75244 10.25H9.75994V10.2575H9.75244V10.25ZM9.75244 12.5H9.75994V12.5075H9.75244V12.5ZM9.75244 14.75H9.75994V14.7575H9.75244V14.75ZM9.75244 17H9.75994V17.0075H9.75244V17ZM12.25 10.25H12.2575V10.2575H12.25V10.25ZM12.25 12.5H12.2575V12.5075H12.25V12.5ZM4.75 5H12.25V7.25H4.75V5ZM8.5 1.25C6.608 1.25 4.74156 1.35947 2.90668 1.57241C1.80608 1.70014 1 2.649 1 3.75699V18.5C1 19.7426 2.00736 20.75 3.25 20.75H13.75C14.9926 20.75 16 19.7426 16 18.5V3.75699C16 2.649 15.1939 1.70014 14.0933 1.57241C12.2584 1.35947 10.392 1.25 8.5 1.25Z" stroke="#838383" stroke-linecap="round" stroke-linejoin="round"/>
</svg>
