<svg width="48" height="48" viewBox="0 0 48 48" fill="none" xmlns="http://www.w3.org/2000/svg">
<path d="M0 8C0 3.58172 3.58172 0 8 0H40C44.4183 0 48 3.58172 48 8V40C48 44.4183 44.4183 48 40 48H8C3.58172 48 0 44.4183 0 40V8Z" fill="white"/>
<path d="M26 30.5H30.5M30.5 30.5H35M30.5 30.5V26M30.5 30.5V35M16 22H19C20.6569 22 22 20.6569 22 19V16C22 14.3431 20.6569 13 19 13H16C14.3431 13 13 14.3431 13 16V19C13 20.6569 14.3431 22 16 22ZM16 35H19C20.6569 35 22 33.6569 22 32V29C22 27.3431 20.6569 26 19 26H16C14.3431 26 13 27.3431 13 29V32C13 33.6569 14.3431 35 16 35ZM29 22H32C33.6569 22 35 20.6569 35 19V16C35 14.3431 33.6569 13 32 13H29C27.3431 13 26 14.3431 26 16V19C26 20.6569 27.3431 22 29 22Z" stroke="#C35200" stroke-linecap="round" stroke-linejoin="round"/>
</svg>
