<svg width="48" height="48" viewBox="0 0 48 48" fill="none" xmlns="http://www.w3.org/2000/svg">
<path d="M0 8C0 3.58172 3.58172 0 8 0H40C44.4183 0 48 3.58172 48 8V40C48 44.4183 44.4183 48 40 48H8C3.58172 48 0 44.4183 0 40V8Z" fill="white"/>
<path fill-rule="evenodd" clip-rule="evenodd" d="M33.0512 10.7107C32.9522 10.6755 32.8452 10.6644 32.7546 10.667C32.6797 10.6691 32.5637 10.6819 32.438 10.7374C31.8521 10.9051 31.454 11.039 31.0394 11.1784C30.7931 11.2612 30.5409 11.346 30.2402 11.441L24.5065 11.441C24.3154 11.441 24.177 11.5254 24.1377 11.5496C24.0782 11.5863 24.0292 11.627 23.9954 11.6571C23.926 11.7187 23.8563 11.7935 23.7926 11.8662C23.6619 12.0154 23.5028 12.218 23.3293 12.4499C22.9798 12.9172 22.5405 13.5459 22.0961 14.2062C21.2186 15.5101 20.2709 17.0115 19.9568 17.6615C19.9317 17.7136 19.9133 17.7678 19.9016 17.8229C18.9178 18.6225 18.2848 19.8737 18.2848 21.2795C18.2848 23.6922 20.1496 25.6497 22.4518 25.6497C24.3793 25.6497 25.9989 24.2779 26.4761 22.4167L26.3042 22.3683C26.9464 22.107 27.5715 21.8828 28.115 21.6948C28.299 21.6312 28.4877 21.567 28.6626 21.5075C28.8301 21.4505 28.985 21.3977 29.1111 21.3539C29.3726 21.2631 29.6193 21.174 29.7773 21.0951C30.1013 20.9332 30.4907 20.5878 30.8542 20.235C31.2397 19.861 31.6717 19.4022 32.0948 18.942C32.3385 18.6768 32.5766 18.4145 32.802 18.1661C33.3833 17.5256 33.8813 16.9769 34.1772 16.7098C34.5532 16.3705 34.6481 15.8661 34.664 15.4698C34.6809 15.0494 34.6159 14.5761 34.5162 14.1095C34.3155 13.1703 33.9413 12.1127 33.5927 11.2593C33.5247 11.0928 33.4242 10.976 33.3515 10.9057C33.3129 10.8685 33.274 10.8365 33.2369 10.8099L33.2357 10.809C33.2168 10.7954 33.1454 10.7441 33.0512 10.7107ZM22.4518 18.2875C22.5034 18.2875 22.5548 18.289 22.6058 18.2918L22.8573 18.3625C22.8696 18.3679 22.8825 18.3732 22.8951 18.3778C23.2186 18.4974 23.4236 18.6108 23.8179 19.0016C23.8516 19.035 23.8882 19.0641 23.9269 19.0889C23.8436 19.1321 23.7608 19.1763 23.6793 19.2213C23.3333 19.4129 22.9727 19.6418 22.6911 19.9131C22.4189 20.1754 22.1227 20.5725 22.1227 21.0996C22.1227 21.4701 22.1377 21.7868 22.304 22.0617C22.3896 22.2034 22.4119 22.22 22.4233 22.2285C22.434 22.2365 22.4352 22.2374 22.4702 22.3273C22.6387 22.7614 23.0622 23.0363 23.5679 23.1077C23.9132 23.1564 24.3217 23.1189 24.801 22.9759C24.2864 23.7588 23.4254 24.2714 22.4518 24.2714C20.8779 24.2714 19.6005 22.9327 19.6005 21.2795C19.6005 19.6262 20.8779 18.2875 22.4518 18.2875ZM22.8492 18.3593L22.6058 18.2918C22.6332 18.2975 22.6585 18.3032 22.6817 18.3089C22.7519 18.326 22.802 18.3423 22.8307 18.3525C22.8385 18.3552 22.8446 18.3575 22.8492 18.3593ZM22.8492 18.3593L22.8519 18.36L22.8573 18.3625C22.8573 18.3625 22.8531 18.3608 22.8492 18.3593ZM26.2086 17.9017C26.2172 17.8966 26.2173 17.8975 26.2086 17.9017V17.9017ZM24.9768 17.1824C24.8441 17.3064 24.7185 17.4238 24.5919 17.529C24.0512 17.1889 23.4308 16.9736 22.7668 16.9215C22.5659 16.8855 22.3192 16.8584 22.0318 16.8584C22.0086 16.8584 21.9856 16.8587 21.9626 16.8592C22.3199 16.288 22.7459 15.6326 23.1714 15.0004C23.6095 14.3494 24.0346 13.7416 24.3649 13.3001C24.521 13.0914 24.649 12.9291 24.7436 12.8193H30.3367C30.4003 12.8193 30.4637 12.8096 30.5247 12.7905C30.9269 12.6649 31.217 12.5669 31.4871 12.4757C31.808 12.3674 32.1007 12.2686 32.5198 12.1441C32.807 12.8818 33.0808 13.7017 33.2323 14.4106C33.3207 14.8241 33.3595 15.164 33.3495 15.412C33.3422 15.5952 33.3116 15.6639 33.3052 15.6777C32.9544 15.9971 32.3856 16.6239 31.7883 17.2823C31.5755 17.5168 31.3586 17.7558 31.1472 17.9858C30.7276 18.4422 30.317 18.8776 29.9602 19.2238C29.5813 19.5914 29.3286 19.7923 29.2109 19.8511C29.1419 19.8856 28.9796 19.9475 28.697 20.0457C28.5582 20.0939 28.4158 20.1423 28.2596 20.1954C28.0938 20.2518 27.9121 20.3136 27.7026 20.386C26.9297 20.6533 25.9649 21.0027 25.0073 21.4347C24.324 21.743 23.9297 21.768 23.7436 21.7417C23.7005 21.7356 23.6712 21.7278 23.6522 21.7211C23.5834 21.5692 23.4962 21.4291 23.4457 21.3558C23.4419 21.3088 23.4386 21.2322 23.4384 21.1104C23.4433 21.0962 23.4692 21.036 23.5817 20.9277C23.7384 20.7767 23.9809 20.6133 24.294 20.44C24.6019 20.2695 24.9403 20.1097 25.2747 19.9523L25.3042 19.9384C25.616 19.7917 25.9394 19.6394 26.1872 19.4939C26.6369 19.2298 27.1269 18.8583 27.1796 18.2344C27.2043 17.9414 27.1205 17.686 27.0321 17.4917C26.9444 17.2991 26.823 17.1056 26.7078 16.9282C26.5623 16.704 26.3251 16.5572 26.0461 16.5568C25.8257 16.5564 25.649 16.649 25.553 16.7068C25.3633 16.821 25.1641 17.0073 25.0151 17.1466L24.9768 17.1824Z" fill="#45B287"/>
<path fill-rule="evenodd" clip-rule="evenodd" d="M29.1649 27.2818H15.0876C14.1187 27.2818 13.3333 28.1046 13.3333 29.1196V35.4956C13.3333 36.5105 14.1187 37.3333 15.0876 37.3333H29.1649C30.1337 37.3333 30.9191 36.5105 30.9191 35.4956V29.1196C30.9191 28.1046 30.1337 27.2818 29.1649 27.2818ZM29.1649 28.6601H27.1232C27.1592 28.807 27.1784 28.9609 27.1784 29.1196C27.1784 30.1345 26.393 30.9573 25.4242 30.9573H18.4073C17.4385 30.9573 16.6531 30.1345 16.6531 29.1196C16.6531 28.9609 16.6723 28.807 16.7084 28.6601H15.0876C14.8454 28.6601 14.649 28.8658 14.649 29.1196V35.4956C14.649 35.7493 14.8454 35.955 15.0876 35.955H29.1649C29.4071 35.955 29.6035 35.7493 29.6035 35.4956V29.1196C29.6035 28.8658 29.4071 28.6601 29.1649 28.6601ZM18.4073 28.6601H25.4242C25.6664 28.6601 25.8628 28.8658 25.8628 29.1196C25.8628 29.3733 25.6664 29.579 25.4242 29.579H18.4073C18.1651 29.579 17.9688 29.3733 17.9688 29.1196C17.9688 28.8658 18.1651 28.6601 18.4073 28.6601Z" fill="#45B287"/>
</svg>
