<svg width="48" height="48" viewBox="0 0 48 48" fill="none" xmlns="http://www.w3.org/2000/svg">
<path d="M0 8C0 3.58172 3.58172 0 8 0H40C44.4183 0 48 3.58172 48 8V40C48 44.4183 44.4183 48 40 48H8C3.58172 48 0 44.4183 0 40V8Z" fill="white"/>
<path d="M10.9536 17.3486V30.1022C10.9436 30.8904 11.1637 32.6245 12.1241 33.2551C13.3246 34.0434 17.4963 36.8254 25.2096 36.5008C31.3802 36.2412 34.4234 34.6616 35.1738 33.9043C35.624 33.5179 37.0161 32.184 37.0161 30.626C37.0161 29.0681 37.0161 20.7336 37.0161 17.3488" stroke="#C35200" stroke-width="0.799096"/>
<path d="M36.1962 19.4579C36.8447 18.9092 37.1389 18.3613 37.1389 17.8406C37.1389 17.4211 37.0899 16.959 36.8539 16.492C36.6195 16.0282 36.1827 15.5242 35.3475 15.0547C33.6558 14.1038 30.3818 13.3238 24.092 13.3226L36.1962 19.4579ZM36.1962 19.4579C35.5496 20.0051 34.5931 20.5143 33.384 20.9491M36.1962 19.4579L33.384 20.9491M33.384 20.9491C30.9692 21.8175 27.6323 22.3586 24.0002 22.3586M33.384 20.9491L24.0002 22.3586M24.0002 22.3586C20.3717 22.3586 17.0365 21.7725 14.6224 20.8594C13.4138 20.4023 12.4562 19.8708 11.8082 19.3065C11.1574 18.7397 10.8611 18.1794 10.8611 17.6567C10.8611 17.2454 10.9193 16.7989 11.1677 16.3509M24.0002 22.3586L11.1677 16.3509M11.1677 16.3509C11.4155 15.904 11.8729 15.4189 12.7339 14.9684M11.1677 16.3509L12.7339 14.9684M12.7339 14.9684C14.4757 14.0572 17.8012 13.3226 24.092 13.3226L12.7339 14.9684Z" stroke="#C35200" stroke-width="0.799096"/>
<path d="M23.6002 15.2926C28.7313 15.2933 31.3686 15.7348 32.7122 16.2783C33.3764 16.547 33.6881 16.8264 33.8408 17.0551C33.99 17.2785 34.0192 17.4999 34.0192 17.7332C34.0192 17.9328 33.8632 18.2249 33.3377 18.5698C32.8311 18.9023 32.073 19.2201 31.1038 19.4947C29.1709 20.0424 26.4856 20.3945 23.5255 20.3945C20.5653 20.3945 17.9182 20.0424 16.0239 19.4952C15.074 19.2209 14.3354 18.9037 13.8434 18.5724C13.3352 18.2303 13.1813 17.9382 13.1813 17.7332C13.1813 17.5002 13.2105 17.2788 13.3597 17.0554C13.5125 16.8266 13.8242 16.547 14.4884 16.2782C15.8319 15.7344 18.4691 15.2926 23.6002 15.2926ZM23.6002 15.2926L23.6003 14.8931L23.6002 15.2926Z" stroke="#C35200" stroke-width="0.799096"/>
<path d="M30.4704 25.3322C30.0161 25.2334 28.7415 25.0951 28.378 25.3322C27.9237 25.6285 27.8102 25.9249 28.378 26.32C28.8323 26.6361 29.7788 26.781 30.1952 26.8139" stroke="#C35200" stroke-width="0.719186"/>
<path d="M22.3738 27.6314C24.873 27.4251 26.3472 25.9388 27.4183 26.0764C28.2752 26.1864 28.1894 26.1222 28.2688 26.0764" stroke="#C35200" stroke-width="0.719186"/>
<path d="M30.2041 25.0466C30.1102 24.1413 30.786 23.7274 31.2366 23.624C31.6871 23.5205 32.4255 23.6671 32.7384 23.7533C33.1138 24.3137 33.8647 25.5639 33.8647 26.0812C33.8647 26.7279 33.4893 29.5731 33.5831 30.0904C33.677 30.6078 33.8647 31.6424 33.5831 31.7717C33.3015 31.9011 32.2912 31.9316 32.0813 31.6424C31.8936 31.3837 31.7997 31.2544 31.7059 31.2544C31.7059 31.2544 30.6233 33.5761 32.0813 35.0514" stroke="#C35200" stroke-width="0.719186"/>
<path d="M33.8646 25.2162C34.6352 25.1039 35.9746 25.9185 35.9746 26.0083C35.9746 26.1206 35.626 26.6758 35.2957 26.7881C35.0315 26.8779 33.9747 26.8255 33.8646 26.7881" stroke="#C35200" stroke-width="0.719186"/>
<path d="M11.1298 29.5705C17.5338 28.6108 19.1212 25.2146 20.2858 25.2146C20.5545 25.2146 20.9129 25.3999 21.3608 25.7707C21.9543 26.2619 21.8087 27.2535 21.9878 27.3462C22.167 27.4389 23.6003 29.1071 23.6003 29.2925C23.6003 29.4779 23.5107 30.2193 23.0628 30.312C22.6149 30.4047 21.9878 30.1957 21.5399 30.0339C21.2016 29.9118 20.5393 29.447 20.2556 29.2925L20.2986 28.6931L20.2858 28.1573C20.2858 28.1573 20.4356 30.0339 19.7529 30.0339C19.3248 30.0339 19.0701 29.57 19.0701 29.57M19.0317 28.1573V29.2925L19.0701 29.57M19.0701 29.57L18.7629 30.312C18.2254 31.1461 15.7373 34.1891 15.379 34.5598" stroke="#C35200" stroke-width="0.719186"/>
<path d="M19.9981 23.9742C20.257 24.1987 20.7423 24.4474 21.0069 25.2144C21.2714 25.9815 21.083 25.4539 20.94 25.2144C20.2061 25.2144 19.8578 24.8301 19.1663 24.7192C18.4749 24.6083 17.8589 24.6987 17.6373 24.7577" stroke="#C35200" stroke-width="0.719186"/>
<circle cx="35" cy="13" r="4" fill="#CB2C2C"/>
<circle cx="35" cy="13" r="4" fill="#CB2C2C"/>
<circle cx="35" cy="13" r="4" fill="#CB2C2C"/>
</svg>
