<svg width="48" height="48" viewBox="0 0 48 48" fill="none" xmlns="http://www.w3.org/2000/svg">
<path d="M0 8C0 3.58172 3.58172 0 8 0H40C44.4183 0 48 3.58172 48 8V40C48 44.4183 44.4183 48 40 48H8C3.58172 48 0 44.4183 0 40V8Z" fill="white"/>
<path d="M15.1324 30.648H12.3978C12.2652 31.1882 12 32.4797 12 33.3229C12 34.1662 12.3845 35.4178 12.5768 35.9382C17.6284 36.9181 24.4899 36.5005 26.5185 35.9382C26.7878 35.8636 29.4122 34.8033 29.5415 34.6807L35.5577 30.3894C36.4427 29.6987 35.8958 28.8435 35.3986 28.6048C34.8115 28.323 33.6087 28.8832 32.8927 29.2412L28.7659 31.3043L23.0181 31.8412C22.9021 31.8048 22.6701 31.6463 22.6701 31.3043C22.6701 30.9622 22.9021 30.8369 23.0181 30.817L25.5241 29.2113C26.5185 28.6048 26.433 27.6294 25.8025 27.2026C24.7086 26.4621 23.3761 27.3816 22.4811 28.0379C21.079 28.9727 21.266 28.6584 19.1499 28.7937C17.0337 28.9289 15.739 29.8491 15.1324 30.648Z" stroke="#CB9C2C" stroke-linejoin="round"/>
<path d="M27.175 15.7672C27.0358 14.3453 25.9684 13.3249 25.0801 12.1575C24.1495 13.1311 22.8891 13.9474 22.5709 15.5286C22.3467 16.6423 22.5286 18.0496 23.29 19.3876C23.7465 20.19 24.7424 21.1807 24.7424 21.1807L25.1548 20.7504C25.5701 20.1853 27.4424 18.4988 27.175 15.7672Z" stroke="#CB9C2C" stroke-linejoin="round"/>
<path d="M21.4171 18.94C20.116 18.3495 18.6987 18.7638 17.2435 18.9494C17.6214 20.2422 17.6982 21.7418 18.9083 22.8079C19.7608 23.5589 21.0705 24.1051 22.6099 24.1148C23.5331 24.1205 24.889 23.7535 24.889 23.7535L24.7225 23.1811C24.4408 22.5389 23.9164 20.0742 21.4171 18.94Z" stroke="#CB9C2C" stroke-linejoin="round"/>
<path d="M28.3459 18.94C29.647 18.3495 31.0644 18.7638 32.5195 18.9494C32.1417 20.2422 32.0649 21.7418 30.8547 22.8079C30.0022 23.5589 28.6926 24.1051 27.1531 24.1148C26.23 24.1205 24.874 23.7535 24.874 23.7535L25.0405 23.1811C25.3222 22.5389 25.8466 20.0742 28.3459 18.94Z" stroke="#CB9C2C" stroke-linejoin="round"/>
</svg>
