<svg width="48" height="48" viewBox="0 0 48 48" fill="none" xmlns="http://www.w3.org/2000/svg">
<path d="M0 8C0 3.58172 3.58172 0 8 0H40C44.4183 0 48 3.58172 48 8V40C48 44.4183 44.4183 48 40 48H8C3.58172 48 0 44.4183 0 40V8Z" fill="white"/>
<path d="M21.6437 15.091C21.2373 14.5839 20.4852 13.5824 20.1171 12.6891C19.9783 12.3529 19.9375 11.9686 20.0844 11.6643C20.2313 11.36 20.4757 11.1199 20.8995 10.9917C22.4937 10.5657 25.6195 10.5564 27.2566 10.9757C27.8285 11.1223 27.9713 11.3717 28.1167 11.6256L28.1205 11.6323C28.2672 11.8885 28.2977 12.2142 28.1368 12.6251C27.7964 13.494 27.0706 14.5105 26.622 15.0947C27.2537 15.2865 27.7126 15.8648 27.7126 16.5484C27.7126 16.9919 27.5194 17.391 27.2112 17.6691C27.9424 18.1006 28.458 18.7868 29.2104 19.7881C29.4823 20.1499 29.7852 20.553 30.1403 21C33.7098 25.0033 36.2362 29.1987 33.5306 33.6664C30.5666 38.5607 17.983 38.5505 14.59 33.6664C11.5363 29.2708 14.5893 25.0065 17.983 21C18.3095 20.6145 18.5979 20.2586 18.8628 19.9316C19.6858 18.9157 20.2819 18.1799 21.0892 17.71C20.7536 17.4309 20.5406 17.0141 20.5406 16.5484C20.5406 15.8603 21.0056 15.2789 21.6437 15.091Z" stroke="#EF6537"/>
<path d="M19.8199 30.9571V31.9254H16.1096V31.106L17.8186 29.2736C17.9696 29.0973 18.0913 28.9396 18.1838 28.8005C18.2763 28.659 18.3433 28.5311 18.3847 28.4169C18.4285 28.3027 18.4504 28.1997 18.4504 28.1078C18.4504 27.9514 18.4273 27.821 18.381 27.7167C18.3372 27.6099 18.2715 27.5292 18.1838 27.4746C18.0986 27.42 17.9927 27.3927 17.8661 27.3927C17.7395 27.3927 17.6287 27.4299 17.5338 27.5044C17.4388 27.5789 17.3646 27.6807 17.311 27.8098C17.2599 27.9389 17.2343 28.0842 17.2343 28.2456H16C16 27.9129 16.0791 27.6087 16.2374 27.3331C16.3981 27.0575 16.6208 26.8377 16.9057 26.6738C17.1905 26.5075 17.5204 26.4243 17.8953 26.4243C18.2873 26.4243 18.616 26.4864 18.8813 26.6105C19.1467 26.7347 19.3464 26.9147 19.4803 27.1506C19.6166 27.384 19.6848 27.6658 19.6848 27.996C19.6848 28.1848 19.6555 28.366 19.5971 28.5398C19.5387 28.7136 19.4547 28.8862 19.3451 29.0575C19.2356 29.2264 19.1017 29.4002 18.9434 29.579C18.7876 29.7578 18.6099 29.9477 18.4103 30.1488L17.7237 30.9571H19.8199Z" fill="#EF6537"/>
<path d="M20.564 31.337C20.564 31.1582 20.6273 31.0092 20.7539 30.89C20.8805 30.7684 21.0436 30.7075 21.2433 30.7075C21.4453 30.7075 21.6084 30.7684 21.7326 30.89C21.8592 31.0092 21.9225 31.1582 21.9225 31.337C21.9225 31.5157 21.8592 31.666 21.7326 31.7876C21.6084 31.9068 21.4453 31.9664 21.2433 31.9664C21.0436 31.9664 20.8805 31.9068 20.7539 31.7876C20.6273 31.666 20.564 31.5157 20.564 31.337Z" fill="#EF6537"/>
<path d="M23.7987 29.5082L22.82 29.2736L23.1414 26.5025H26.2491V27.4783H24.1456L24.0251 28.5547C24.0836 28.52 24.1822 28.479 24.3209 28.4318C24.4621 28.3822 24.618 28.3573 24.7884 28.3573C25.0513 28.3573 25.2838 28.3983 25.4859 28.4802C25.6904 28.5597 25.8633 28.6776 26.0045 28.8341C26.1457 28.988 26.2516 29.178 26.3222 29.4039C26.3952 29.6299 26.4317 29.8881 26.4317 30.1786C26.4317 30.412 26.394 30.638 26.3185 30.8565C26.2455 31.0725 26.1323 31.2674 25.9789 31.4413C25.8279 31.6126 25.6368 31.7491 25.4055 31.851C25.1743 31.9503 24.9004 31.9999 24.5839 31.9999C24.3477 31.9999 24.1176 31.9627 23.8937 31.8882C23.6697 31.8137 23.4676 31.7069 23.2874 31.5679C23.1097 31.4264 22.9685 31.2563 22.8638 31.0576C22.7616 30.8565 22.7117 30.6318 22.7141 30.3835H23.9521C23.9594 30.5151 23.9898 30.6293 24.0434 30.7261C24.097 30.823 24.1688 30.8987 24.2589 30.9533C24.3514 31.0055 24.4573 31.0316 24.5766 31.0316C24.6983 31.0316 24.7993 31.0067 24.8797 30.9571C24.96 30.9074 25.0233 30.8391 25.0696 30.7522C25.1158 30.6653 25.1487 30.566 25.1682 30.4542C25.1876 30.34 25.1974 30.2196 25.1974 30.093C25.1974 29.9589 25.1828 29.8385 25.1536 29.7317C25.1268 29.6249 25.083 29.5343 25.0221 29.4598C24.9612 29.3828 24.8821 29.3245 24.7847 29.2847C24.6898 29.245 24.5753 29.2251 24.4414 29.2251C24.2637 29.2251 24.1237 29.2562 24.0215 29.3183C23.9192 29.3803 23.845 29.4437 23.7987 29.5082Z" fill="#EF6537"/>
<path d="M27.1065 27.8322V27.5454C27.1065 27.3393 27.1503 27.1518 27.2379 26.983C27.3256 26.8141 27.457 26.6788 27.6323 26.577C27.8076 26.4752 28.0255 26.4243 28.286 26.4243C28.5538 26.4243 28.7754 26.4752 28.9507 26.577C29.126 26.6788 29.2562 26.8141 29.3414 26.983C29.4291 27.1518 29.4729 27.3393 29.4729 27.5454V27.8322C29.4729 28.0333 29.4291 28.2183 29.3414 28.3871C29.2562 28.556 29.126 28.6913 28.9507 28.7931C28.7778 28.8949 28.5599 28.9458 28.297 28.9458C28.0316 28.9458 27.8113 28.8949 27.636 28.7931C27.4607 28.6913 27.328 28.556 27.2379 28.3871C27.1503 28.2183 27.1065 28.0333 27.1065 27.8322ZM27.8953 27.5454V27.8322C27.8953 27.9067 27.9099 27.9774 27.9391 28.0445C27.9683 28.1115 28.0121 28.1661 28.0706 28.2083C28.1314 28.2481 28.2057 28.2679 28.2933 28.2679C28.3834 28.2679 28.4564 28.2481 28.5124 28.2083C28.5684 28.1661 28.6098 28.1115 28.6366 28.0445C28.6658 27.9774 28.6804 27.9067 28.6804 27.8322V27.5454C28.6804 27.4659 28.6658 27.3927 28.6366 27.3256C28.6098 27.2586 28.5672 27.2052 28.5088 27.1655C28.4504 27.1233 28.3761 27.1022 28.286 27.1022C28.2008 27.1022 28.129 27.1233 28.0706 27.1655C28.0121 27.2052 27.9683 27.2586 27.9391 27.3256C27.9099 27.3927 27.8953 27.4659 27.8953 27.5454ZM29.6299 30.8826V30.5958C29.6299 30.3922 29.6737 30.2059 29.7614 30.0371C29.8515 29.8683 29.9842 29.7329 30.1594 29.6311C30.3372 29.5293 30.5563 29.4784 30.8168 29.4784C31.0846 29.4784 31.3049 29.5293 31.4778 29.6311C31.6531 29.7329 31.7833 29.8683 31.8685 30.0371C31.9562 30.2059 32 30.3922 32 30.5958V30.8826C32 31.0862 31.9562 31.2724 31.8685 31.4413C31.7833 31.6101 31.6543 31.7454 31.4814 31.8472C31.3086 31.949 31.0907 31.9999 30.8277 31.9999C30.5624 31.9999 30.3408 31.949 30.1631 31.8472C29.9854 31.7454 29.8515 31.6101 29.7614 31.4413C29.6737 31.2724 29.6299 31.0862 29.6299 30.8826ZM30.4224 30.5958V30.8826C30.4224 30.9595 30.4406 31.0316 30.4772 31.0986C30.5137 31.1656 30.5624 31.2203 30.6232 31.2625C30.6841 31.3022 30.7511 31.3221 30.8241 31.3221C30.9361 31.3221 31.0189 31.3022 31.0724 31.2625C31.1284 31.2203 31.1649 31.1656 31.182 31.0986C31.2015 31.0316 31.2112 30.9595 31.2112 30.8826V30.5958C31.2112 30.5188 31.1966 30.4468 31.1674 30.3798C31.1382 30.3127 31.0943 30.2593 31.0359 30.2196C30.9775 30.1774 30.9044 30.1563 30.8168 30.1563C30.7291 30.1563 30.6561 30.1774 30.5977 30.2196C30.5392 30.2593 30.4954 30.3127 30.4662 30.3798C30.437 30.4468 30.4224 30.5188 30.4224 30.5958ZM31.1235 27.2809L28.527 31.5195L27.9537 31.2252L30.5502 26.9867L31.1235 27.2809Z" fill="#EF6537"/>
<path d="M21.5473 14.3884H26.5565V15.6656H21.5473V14.3884Z" fill="#EF6537"/>
<path d="M20.8808 17.1119H27.4431V18.4505H20.8808V17.1119Z" fill="#EF6537"/>
</svg>
